<mxfile host="www.draw.io" modified="2020-02-13T02:17:06.301Z" agent="Mozilla/5.0 (Windows NT 10.0; Win64; x64) AppleWebKit/537.36 (KHTML, like Gecko) Chrome/80.0.3987.100 Safari/537.36" etag="wbRrgTzBLNseM6FDjNkx" version="12.6.8" type="github" pages="2">
  <diagram id="Qw9qsAwoKkiPCp3U7Go1" name="1.1: Display New Staff Form">
    <mxGraphModel dx="1038" dy="580" grid="1" gridSize="10" guides="1" tooltips="1" connect="1" arrows="1" fold="1" page="1" pageScale="1" pageWidth="850" pageHeight="1100" math="0" shadow="0">
      <root>
        <mxCell id="0"/>
        <mxCell id="1" parent="0"/>
        <mxCell id="oQoYxlUV6_kzbwfiFUBr-5" value="1.1&lt;br&gt;Display New Staff Form" style="whiteSpace=wrap;html=1;aspect=fixed;" parent="1" vertex="1">
          <mxGeometry x="420" y="80" width="80" height="80" as="geometry"/>
        </mxCell>
        <mxCell id="oQoYxlUV6_kzbwfiFUBr-6" value="" style="endArrow=classic;html=1;" parent="1" edge="1">
          <mxGeometry width="50" height="50" relative="1" as="geometry">
            <mxPoint x="250" y="520" as="sourcePoint"/>
            <mxPoint x="250" y="520" as="targetPoint"/>
          </mxGeometry>
        </mxCell>
        <mxCell id="oQoYxlUV6_kzbwfiFUBr-7" value="1.1.5&lt;br&gt;Display New Staff Form on Screen" style="whiteSpace=wrap;html=1;aspect=fixed;" parent="1" vertex="1">
          <mxGeometry x="700" y="280" width="80" height="80" as="geometry"/>
        </mxCell>
        <mxCell id="oQoYxlUV6_kzbwfiFUBr-25" value="" style="endArrow=classic;html=1;exitX=0;exitY=1;exitDx=0;exitDy=0;entryX=0.5;entryY=0;entryDx=0;entryDy=0;strokeWidth=2;" parent="1" source="oQoYxlUV6_kzbwfiFUBr-28" target="BFsdXdnVws99yqg370nD-5" edge="1">
          <mxGeometry width="50" height="50" relative="1" as="geometry">
            <mxPoint x="330" y="420" as="sourcePoint"/>
            <mxPoint x="260" y="480" as="targetPoint"/>
          </mxGeometry>
        </mxCell>
        <mxCell id="oQoYxlUV6_kzbwfiFUBr-29" value="" style="endArrow=classic;html=1;exitX=0.75;exitY=1;exitDx=0;exitDy=0;strokeWidth=2;entryX=0.5;entryY=0;entryDx=0;entryDy=0;" parent="1" source="oQoYxlUV6_kzbwfiFUBr-5" target="oQoYxlUV6_kzbwfiFUBr-7" edge="1">
          <mxGeometry width="50" height="50" relative="1" as="geometry">
            <mxPoint x="560" y="250" as="sourcePoint"/>
            <mxPoint x="585" y="280" as="targetPoint"/>
          </mxGeometry>
        </mxCell>
        <mxCell id="oQoYxlUV6_kzbwfiFUBr-30" value="" style="endArrow=classic;html=1;exitX=0.25;exitY=1;exitDx=0;exitDy=0;entryX=0.5;entryY=0;entryDx=0;entryDy=0;strokeWidth=2;" parent="1" source="oQoYxlUV6_kzbwfiFUBr-5" target="BFsdXdnVws99yqg370nD-1" edge="1">
          <mxGeometry width="50" height="50" relative="1" as="geometry">
            <mxPoint x="310" y="200" as="sourcePoint"/>
            <mxPoint x="160" y="280" as="targetPoint"/>
          </mxGeometry>
        </mxCell>
        <mxCell id="oQoYxlUV6_kzbwfiFUBr-68" value="" style="endArrow=classic;html=1;strokeWidth=2;entryX=0.5;entryY=0;entryDx=0;entryDy=0;exitX=1;exitY=1;exitDx=0;exitDy=0;" parent="1" source="oQoYxlUV6_kzbwfiFUBr-28" target="BFsdXdnVws99yqg370nD-4" edge="1">
          <mxGeometry width="50" height="50" relative="1" as="geometry">
            <mxPoint x="250" y="390" as="sourcePoint"/>
            <mxPoint x="150" y="480" as="targetPoint"/>
          </mxGeometry>
        </mxCell>
        <mxCell id="BFsdXdnVws99yqg370nD-1" value="&lt;span style=&quot;white-space: normal&quot;&gt;1.1.1&lt;br&gt;&lt;/span&gt;Authenticate User" style="shape=process;whiteSpace=wrap;html=1;backgroundOutline=1;" parent="1" vertex="1">
          <mxGeometry x="220" y="280" width="90" height="80" as="geometry"/>
        </mxCell>
        <mxCell id="BFsdXdnVws99yqg370nD-4" value="1.1.1.2&lt;br&gt;Deny Access" style="shape=process;whiteSpace=wrap;html=1;backgroundOutline=1;" parent="1" vertex="1">
          <mxGeometry x="230" y="430" width="90" height="80" as="geometry"/>
        </mxCell>
        <mxCell id="BFsdXdnVws99yqg370nD-5" value="1.1.1.1&lt;br&gt;Allow Access" style="shape=process;whiteSpace=wrap;html=1;backgroundOutline=1;" parent="1" vertex="1">
          <mxGeometry x="120" y="430" width="90" height="80" as="geometry"/>
        </mxCell>
        <mxCell id="oQoYxlUV6_kzbwfiFUBr-28" value="" style="rhombus;whiteSpace=wrap;html=1;fillColor=#FFFFFF;" parent="1" vertex="1">
          <mxGeometry x="255" y="345" width="20" height="30" as="geometry"/>
        </mxCell>
        <mxCell id="BFsdXdnVws99yqg370nD-9" value="" style="endArrow=classic;html=1;" parent="1" edge="1">
          <mxGeometry width="50" height="50" relative="1" as="geometry">
            <mxPoint x="410" y="525" as="sourcePoint"/>
            <mxPoint x="410" y="525" as="targetPoint"/>
          </mxGeometry>
        </mxCell>
        <mxCell id="BFsdXdnVws99yqg370nD-10" value="" style="endArrow=classic;html=1;exitX=0;exitY=1;exitDx=0;exitDy=0;strokeWidth=2;entryX=0.5;entryY=0;entryDx=0;entryDy=0;" parent="1" source="BFsdXdnVws99yqg370nD-15" target="ioNZqTvOruEukKbIuHrc-1" edge="1">
          <mxGeometry width="50" height="50" relative="1" as="geometry">
            <mxPoint x="485" y="420" as="sourcePoint"/>
            <mxPoint x="320" y="450" as="targetPoint"/>
          </mxGeometry>
        </mxCell>
        <mxCell id="BFsdXdnVws99yqg370nD-11" value="" style="endArrow=classic;html=1;strokeWidth=2;exitX=1;exitY=1;exitDx=0;exitDy=0;entryX=0.5;entryY=0;entryDx=0;entryDy=0;" parent="1" source="BFsdXdnVws99yqg370nD-15" target="ioNZqTvOruEukKbIuHrc-2" edge="1">
          <mxGeometry width="50" height="50" relative="1" as="geometry">
            <mxPoint x="405" y="390" as="sourcePoint"/>
            <mxPoint x="440" y="440" as="targetPoint"/>
          </mxGeometry>
        </mxCell>
        <mxCell id="BFsdXdnVws99yqg370nD-12" value="&lt;span style=&quot;white-space: normal&quot;&gt;1.1.2&lt;br&gt;&lt;/span&gt;Authenticate User Type" style="shape=process;whiteSpace=wrap;html=1;backgroundOutline=1;" parent="1" vertex="1">
          <mxGeometry x="355" y="280" width="90" height="80" as="geometry"/>
        </mxCell>
        <mxCell id="BFsdXdnVws99yqg370nD-15" value="" style="rhombus;whiteSpace=wrap;html=1;fillColor=#FFFFFF;" parent="1" vertex="1">
          <mxGeometry x="390" y="345" width="20" height="30" as="geometry"/>
        </mxCell>
        <mxCell id="BFsdXdnVws99yqg370nD-17" value="" style="endArrow=classic;html=1;exitX=0.5;exitY=1;exitDx=0;exitDy=0;entryX=0.5;entryY=0;entryDx=0;entryDy=0;strokeWidth=2;" parent="1" source="oQoYxlUV6_kzbwfiFUBr-5" target="BFsdXdnVws99yqg370nD-12" edge="1">
          <mxGeometry width="50" height="50" relative="1" as="geometry">
            <mxPoint x="467.5" y="180" as="sourcePoint"/>
            <mxPoint x="262.5" y="300" as="targetPoint"/>
          </mxGeometry>
        </mxCell>
        <mxCell id="BFsdXdnVws99yqg370nD-19" value="" style="endArrow=classic;html=1;strokeWidth=2;entryX=0.5;entryY=0;entryDx=0;entryDy=0;exitX=0.5;exitY=1;exitDx=0;exitDy=0;" parent="1" source="oQoYxlUV6_kzbwfiFUBr-5" target="BFsdXdnVws99yqg370nD-22" edge="1">
          <mxGeometry width="50" height="50" relative="1" as="geometry">
            <mxPoint x="480" y="160" as="sourcePoint"/>
            <mxPoint x="520" y="280" as="targetPoint"/>
          </mxGeometry>
        </mxCell>
        <mxCell id="BFsdXdnVws99yqg370nD-20" value="1.1.4.1&lt;br&gt;Retrieve User Types from User Type Table" style="shape=process;whiteSpace=wrap;html=1;backgroundOutline=1;" parent="1" vertex="1">
          <mxGeometry x="590" y="430" width="90" height="80" as="geometry"/>
        </mxCell>
        <mxCell id="BFsdXdnVws99yqg370nD-21" value="" style="endArrow=classic;html=1;strokeWidth=2;entryX=0.5;entryY=0;entryDx=0;entryDy=0;exitX=0.5;exitY=1;exitDx=0;exitDy=0;" parent="1" source="BFsdXdnVws99yqg370nD-22" target="BFsdXdnVws99yqg370nD-20" edge="1">
          <mxGeometry width="50" height="50" relative="1" as="geometry">
            <mxPoint x="625" y="360" as="sourcePoint"/>
            <mxPoint x="730" y="452.5" as="targetPoint"/>
          </mxGeometry>
        </mxCell>
        <mxCell id="BFsdXdnVws99yqg370nD-22" value="1.1.4&lt;br&gt;Get Required Information from Database" style="shape=process;whiteSpace=wrap;html=1;backgroundOutline=1;" parent="1" vertex="1">
          <mxGeometry x="590" y="280" width="90" height="90" as="geometry"/>
        </mxCell>
        <mxCell id="ioNZqTvOruEukKbIuHrc-1" value="1.1.1.1&lt;br&gt;Allow Access" style="shape=process;whiteSpace=wrap;html=1;backgroundOutline=1;" vertex="1" parent="1">
          <mxGeometry x="350" y="430" width="90" height="80" as="geometry"/>
        </mxCell>
        <mxCell id="ioNZqTvOruEukKbIuHrc-2" value="1.1.1.2&lt;br&gt;Deny Access" style="shape=process;whiteSpace=wrap;html=1;backgroundOutline=1;" vertex="1" parent="1">
          <mxGeometry x="460" y="430" width="90" height="80" as="geometry"/>
        </mxCell>
        <mxCell id="eHkM_jUluBBHBKscxpCL-1" value="1.1.3&lt;br&gt;Connect to Database" style="shape=process;whiteSpace=wrap;html=1;backgroundOutline=1;" vertex="1" parent="1">
          <mxGeometry x="470" y="280" width="90" height="80" as="geometry"/>
        </mxCell>
        <mxCell id="eHkM_jUluBBHBKscxpCL-2" value="" style="endArrow=classic;html=1;strokeWidth=2;entryX=0.5;entryY=0;entryDx=0;entryDy=0;exitX=0.5;exitY=1;exitDx=0;exitDy=0;" edge="1" parent="1" source="oQoYxlUV6_kzbwfiFUBr-5" target="eHkM_jUluBBHBKscxpCL-1">
          <mxGeometry width="50" height="50" relative="1" as="geometry">
            <mxPoint x="377.5" y="160" as="sourcePoint"/>
            <mxPoint x="542.5" y="280" as="targetPoint"/>
          </mxGeometry>
        </mxCell>
      </root>
    </mxGraphModel>
  </diagram>
  <diagram id="9Vf_p67YvRIqeWr83ixY" name="1.2 Add Staff Info Into Staff Table">
    <mxGraphModel dx="865" dy="483" grid="1" gridSize="10" guides="1" tooltips="1" connect="1" arrows="1" fold="1" page="1" pageScale="1" pageWidth="850" pageHeight="1100" math="0" shadow="0">
      <root>
        <mxCell id="-GygDUzS8S4LPBGg6Kkc-0"/>
        <mxCell id="-GygDUzS8S4LPBGg6Kkc-1" parent="-GygDUzS8S4LPBGg6Kkc-0"/>
        <mxCell id="-GygDUzS8S4LPBGg6Kkc-2" value="1.2&lt;br&gt;Add Staff Info Into Staff Table" style="whiteSpace=wrap;html=1;aspect=fixed;" parent="-GygDUzS8S4LPBGg6Kkc-1" vertex="1">
          <mxGeometry x="420" y="70" width="80" height="80" as="geometry"/>
        </mxCell>
        <mxCell id="-GygDUzS8S4LPBGg6Kkc-7" value="" style="endArrow=classic;html=1;exitX=0.25;exitY=1;exitDx=0;exitDy=0;entryX=0.5;entryY=0;entryDx=0;entryDy=0;strokeWidth=2;" parent="-GygDUzS8S4LPBGg6Kkc-1" source="-GygDUzS8S4LPBGg6Kkc-2" target="-GygDUzS8S4LPBGg6Kkc-9" edge="1">
          <mxGeometry width="50" height="50" relative="1" as="geometry">
            <mxPoint x="310" y="190" as="sourcePoint"/>
            <mxPoint x="160" y="270" as="targetPoint"/>
          </mxGeometry>
        </mxCell>
        <mxCell id="-GygDUzS8S4LPBGg6Kkc-9" value="&lt;span style=&quot;white-space: normal&quot;&gt;1.2.1&lt;br&gt;&lt;/span&gt;Retrieve Submitted Form Data" style="shape=process;whiteSpace=wrap;html=1;backgroundOutline=1;" parent="-GygDUzS8S4LPBGg6Kkc-1" vertex="1">
          <mxGeometry x="220" y="270" width="90" height="80" as="geometry"/>
        </mxCell>
        <mxCell id="-GygDUzS8S4LPBGg6Kkc-15" value="&lt;span style=&quot;white-space: normal&quot;&gt;1.2.2&lt;br&gt;&lt;/span&gt;Verify Submitted Form Data" style="shape=process;whiteSpace=wrap;html=1;backgroundOutline=1;" parent="-GygDUzS8S4LPBGg6Kkc-1" vertex="1">
          <mxGeometry x="355" y="270" width="90" height="80" as="geometry"/>
        </mxCell>
        <mxCell id="-GygDUzS8S4LPBGg6Kkc-17" value="" style="endArrow=classic;html=1;exitX=0.5;exitY=1;exitDx=0;exitDy=0;entryX=0.5;entryY=0;entryDx=0;entryDy=0;strokeWidth=2;" parent="-GygDUzS8S4LPBGg6Kkc-1" source="-GygDUzS8S4LPBGg6Kkc-2" target="-GygDUzS8S4LPBGg6Kkc-15" edge="1">
          <mxGeometry width="50" height="50" relative="1" as="geometry">
            <mxPoint x="467.5" y="170" as="sourcePoint"/>
            <mxPoint x="262.5" y="290" as="targetPoint"/>
          </mxGeometry>
        </mxCell>
        <mxCell id="-GygDUzS8S4LPBGg6Kkc-18" value="" style="endArrow=classic;html=1;strokeWidth=2;entryX=0.5;entryY=0;entryDx=0;entryDy=0;exitX=0.75;exitY=1;exitDx=0;exitDy=0;" parent="-GygDUzS8S4LPBGg6Kkc-1" source="-GygDUzS8S4LPBGg6Kkc-2" target="RBZk8EdW8kiplYnRcdcY-0" edge="1">
          <mxGeometry width="50" height="50" relative="1" as="geometry">
            <mxPoint x="480" y="130" as="sourcePoint"/>
            <mxPoint x="560" y="270" as="targetPoint"/>
          </mxGeometry>
        </mxCell>
        <mxCell id="RBZk8EdW8kiplYnRcdcY-0" value="1.2.3&lt;br&gt;Insert Submitted Form Data Into Staff Table" style="whiteSpace=wrap;html=1;aspect=fixed;" parent="-GygDUzS8S4LPBGg6Kkc-1" vertex="1">
          <mxGeometry x="490" y="270" width="90" height="90" as="geometry"/>
        </mxCell>
        <mxCell id="97dr2EivWlVoPKoi6YJp-1" value="" style="endArrow=classic;html=1;curved=1;" edge="1" parent="-GygDUzS8S4LPBGg6Kkc-1">
          <mxGeometry width="50" height="50" relative="1" as="geometry">
            <mxPoint x="455" y="149.9999999999999" as="sourcePoint"/>
            <mxPoint x="430" y="150" as="targetPoint"/>
            <Array as="points">
              <mxPoint x="490" y="160"/>
              <mxPoint x="470" y="180"/>
              <mxPoint x="410" y="180"/>
              <mxPoint x="400" y="160"/>
            </Array>
          </mxGeometry>
        </mxCell>
      </root>
    </mxGraphModel>
  </diagram>
</mxfile>
